<?xml version="1.0" standalone="no"?>
<!DOCTYPE svg PUBLIC "-//W3C//DTD SVG 20010904//EN"
 "http://www.w3.org/TR/2001/REC-SVG-20010904/DTD/svg10.dtd">
<svg version="1.0" xmlns="http://www.w3.org/2000/svg"
 width="2774.000000pt" height="2774.000000pt" viewBox="0 0 2774.000000 2774.000000"
 preserveAspectRatio="xMidYMid meet">
<metadata>
Created by potrace 1.11, written by Peter Selinger 2001-2013
</metadata>
<g transform="translate(0.000000,2774.000000) scale(0.100000,-0.100000)"
fill="#000000" stroke="none">
<path d="M12495 25144 c0 -1428 -2 -2597 -5 -2599 -3 -2 -53 24 -110 57 -58
34 -118 69 -135 78 -16 10 -75 43 -129 75 -55 32 -117 67 -138 79 -35 19 -634
366 -668 386 -18 11 -425 246 -490 282 -25 14 -148 85 -275 158 -248 143 -276
159 -331 191 -41 23 -300 173 -439 254 -49 29 -110 63 -135 77 -39 22 -194
111 -240 138 -8 5 -64 37 -125 72 -60 34 -164 94 -230 133 -189 111 -163 105
-247 54 -40 -24 -82 -49 -93 -54 -11 -6 -235 -140 -497 -298 -263 -158 -482
-287 -487 -287 -5 0 -11 -3 -13 -7 -2 -6 -390 -243 -471 -288 -10 -5 -88 -52
-175 -104 -493 -296 -1880 -1127 -1897 -1137 -11 -6 -414 -247 -895 -535 -481
-289 -1213 -727 -1627 -974 l-752 -450 -1 -978 0 -977 81 50 c44 27 82 50 84
50 2 0 81 47 177 104 95 57 263 156 373 221 110 65 272 161 360 213 348 206
445 262 457 264 9 2 12 -806 12 -3787 l1 -3790 5480 -1 c3014 -1 5485 -2 5490
-3 7 -1 10 -417 10 -1231 0 -676 2 -1231 5 -1231 3 -1 107 -2 233 -3 l227 -1
0 1235 0 1235 5488 0 5487 0 3 253 2 252 -5490 0 -5490 0 0 335 0 335 4450 0
4450 0 0 255 0 255 -4450 0 -4450 0 0 2850 0 2849 146 -84 c80 -47 147 -85
149 -85 1 0 42 -24 91 -53 49 -29 114 -67 144 -84 30 -16 100 -56 155 -88 55
-32 116 -68 136 -79 76 -43 221 -126 414 -238 110 -63 277 -159 370 -213 94
-54 226 -130 295 -170 148 -85 444 -256 730 -420 113 -65 293 -168 400 -230
107 -62 211 -122 230 -133 19 -10 76 -43 125 -72 50 -29 108 -62 130 -75 65
-36 103 -58 245 -140 74 -44 164 -95 200 -115 36 -20 124 -71 195 -112 133
-77 209 -121 747 -431 169 -97 312 -177 317 -177 5 0 11 -4 13 -8 2 -6 215
-131 414 -242 16 -10 90 -52 164 -95 74 -43 149 -86 167 -96 57 -33 95 -54
230 -132 72 -42 147 -85 165 -95 18 -11 116 -68 218 -127 102 -59 210 -121
240 -137 30 -17 103 -59 163 -94 59 -35 109 -64 112 -64 3 0 34 -18 69 -39 57
-35 343 -200 466 -269 25 -14 57 -32 72 -41 116 -69 211 -122 213 -119 17 18
215 442 208 448 -4 4 -138 83 -298 175 -159 92 -364 210 -455 263 -91 52 -178
103 -195 112 -16 10 -102 60 -190 111 -88 51 -216 125 -285 164 -69 39 -210
121 -315 182 -104 61 -206 120 -225 130 -73 42 -477 276 -530 307 -30 19 -75
45 -100 58 -56 31 -373 215 -535 311 -66 39 -136 79 -155 89 -19 10 -42 23
-50 28 -8 5 -71 42 -140 81 -249 143 -497 287 -535 310 -16 11 -37 22 -45 26
-8 4 -37 20 -65 36 -27 17 -63 38 -80 47 -16 10 -113 66 -215 125 -102 59
-203 117 -225 130 -36 20 -117 67 -200 115 -16 9 -65 38 -108 64 -43 25 -80
46 -82 46 -2 0 -32 17 -66 38 -35 22 -84 50 -109 64 -25 14 -132 76 -238 137
-106 61 -207 120 -225 130 -17 10 -86 50 -152 88 -117 68 -251 146 -515 298
-71 41 -134 75 -139 75 -5 0 -11 4 -13 8 -1 5 -41 30 -88 56 -96 54 -123 70
-196 113 -27 17 -70 41 -95 55 -24 14 -98 57 -164 95 -257 149 -642 372 -681
394 -23 13 -128 74 -233 134 l-190 110 -1 393 0 393 68 -37 c37 -21 72 -41 77
-45 6 -4 27 -16 48 -28 92 -52 119 -67 227 -131 121 -71 962 -555 1081 -622
13 -7 26 -15 29 -18 3 -3 23 -14 45 -26 22 -11 82 -45 133 -75 51 -30 110 -63
130 -75 20 -11 53 -30 72 -41 179 -105 230 -133 239 -133 6 0 11 -4 11 -10 0
-5 7 -10 15 -10 8 0 15 -4 15 -10 0 -5 4 -10 9 -10 8 0 340 -188 726 -412 111
-64 548 -316 640 -368 17 -10 171 -99 344 -199 172 -99 315 -181 317 -181 3 0
22 -11 44 -25 22 -14 173 -102 337 -196 164 -95 402 -231 528 -304 127 -73
247 -142 268 -154 83 -47 169 -97 262 -151 44 -26 100 -59 125 -72 110 -62
198 -112 240 -138 25 -15 65 -39 90 -53 25 -13 163 -93 308 -176 144 -83 267
-151 272 -151 6 0 10 -3 10 -8 0 -4 21 -18 48 -32 26 -13 49 -27 52 -30 3 -3
30 -18 60 -34 30 -16 82 -46 115 -66 33 -21 85 -51 115 -67 30 -17 186 -106
345 -198 160 -92 310 -178 335 -193 25 -14 55 -32 67 -40 22 -13 24 -10 129
205 58 120 108 221 111 226 2 4 -4 10 -14 14 -10 4 -20 10 -23 13 -3 4 -36 24
-75 45 -38 21 -133 75 -210 120 -77 45 -160 93 -185 107 -25 14 -119 68 -210
120 -91 53 -182 105 -202 117 -21 11 -53 29 -70 40 -18 10 -168 96 -333 191
-165 95 -388 223 -495 285 -107 62 -211 121 -230 132 -19 11 -125 72 -235 135
-110 64 -217 125 -237 137 -48 27 -35 19 -458 263 -195 113 -375 216 -400 230
-25 14 -103 59 -175 100 -71 42 -146 85 -165 95 -19 11 -109 63 -200 115 -91
53 -182 105 -202 117 -21 11 -53 29 -70 40 -444 256 -770 441 -777 441 -5 0
-11 4 -13 8 -1 4 -23 19 -48 33 -25 14 -183 105 -352 202 -168 97 -328 189
-355 203 -26 15 -52 30 -58 34 -5 4 -30 19 -55 32 -25 14 -133 76 -240 138
-165 95 -637 367 -872 501 -81 47 -106 61 -228 131 -52 31 -127 74 -167 96
-39 23 -87 50 -105 61 -18 10 -166 95 -328 188 l-295 170 -3 1486 -2 1487
-233 -2 -232 -3 0 -1345 c-1 -867 -4 -1344 -11 -1343 -5 1 -39 19 -74 41 -36
21 -288 168 -560 327 -272 159 -565 330 -650 380 l-155 91 -3 2737 -2 2737
-233 0 -232 0 0 -2596z m-3576 -1158 c31 -19 72 -43 91 -54 19 -11 76 -43 125
-72 50 -29 108 -62 130 -75 78 -45 232 -133 365 -210 74 -43 151 -87 170 -98
19 -10 76 -43 125 -72 50 -29 107 -62 128 -74 20 -12 52 -29 70 -40 17 -10
133 -77 257 -148 281 -162 375 -217 620 -358 107 -62 213 -122 234 -134 41
-23 280 -162 452 -262 55 -33 105 -59 111 -59 6 0 13 -4 15 -8 3 -7 56 -39
268 -160 19 -11 76 -43 125 -72 50 -29 108 -62 130 -75 83 -46 120 -69 125
-76 8 -12 6 -737 -2 -745 -4 -4 -13 -2 -20 3 -7 6 -34 22 -59 36 -25 14 -93
52 -150 85 -57 33 -189 108 -294 167 -104 59 -287 163 -405 230 -118 68 -231
132 -250 143 -19 10 -98 55 -175 99 -77 44 -160 91 -185 105 -25 14 -61 34
-80 45 -67 39 -456 260 -505 288 -27 16 -93 53 -145 82 -52 30 -102 58 -110
63 -50 31 -515 292 -528 297 -10 4 -19 9 -22 13 -8 10 -171 100 -181 100 -5 0
-9 5 -9 10 0 6 -4 10 -9 10 -5 0 -67 33 -138 74 -70 40 -148 84 -173 98 -25
14 -65 37 -90 52 -25 15 -53 29 -62 33 -17 5 -18 33 -18 399 0 217 3 394 6
394 4 0 32 -15 63 -34z m45 -1410 c61 -34 131 -74 156 -88 25 -14 72 -41 105
-60 51 -30 220 -125 348 -197 89 -50 125 -70 352 -200 208 -120 477 -272 598
-340 20 -12 54 -31 75 -42 20 -12 57 -33 82 -47 25 -14 86 -49 135 -77 50 -29
110 -63 135 -77 25 -14 105 -60 178 -102 74 -42 135 -76 137 -76 2 0 49 -27
104 -60 56 -33 106 -60 111 -60 6 0 10 -4 10 -10 0 -5 9 -10 19 -10 11 0 21
-4 23 -8 2 -5 32 -25 68 -44 36 -20 121 -68 188 -107 68 -39 128 -71 133 -71
5 0 9 -4 9 -10 0 -5 4 -10 9 -10 6 0 116 -61 247 -135 130 -74 240 -135 244
-135 36 0 35 84 35 -3557 0 -2345 -3 -3523 -10 -3524 -5 -1 -558 -2 -1227 -3
l-1218 -1 0 1473 0 1472 -1043 0 -1042 0 0 -1485 0 -1485 -1460 0 -1460 0 0
3424 0 3424 200 120 c110 66 409 245 665 398 256 152 578 345 715 427 138 83
259 155 270 161 17 10 1039 620 1317 787 53 32 111 67 130 78 18 10 146 86
283 169 138 83 254 151 259 152 5 0 59 -29 120 -64z m4026 -936 c4 -5 348
-203 490 -282 19 -11 40 -24 45 -28 6 -4 35 -21 65 -37 30 -17 71 -39 90 -50
19 -11 125 -72 235 -135 110 -64 217 -125 237 -136 113 -64 254 -147 258 -153
4 -6 5 -767 1 -777 -1 -4 -55 26 -301 168 -189 108 -231 132 -315 180 -22 12
-44 26 -50 30 -5 4 -35 21 -65 37 -30 16 -185 105 -343 196 -159 92 -293 167
-297 167 -5 0 -10 3 -12 8 -1 4 -24 18 -50 32 l-48 25 0 392 0 393 28 -13 c15
-6 29 -14 32 -17z m133 -1418 c84 -49 163 -95 177 -103 14 -8 27 -16 30 -19 3
-3 14 -10 25 -16 103 -56 141 -78 150 -84 8 -7 194 -116 343 -201 18 -11 43
-26 55 -33 12 -8 41 -25 63 -38 23 -12 133 -77 245 -142 l204 -119 0 -2981 0
-2981 -728 -3 -727 -2 0 3405 c0 1873 2 3405 6 3405 3 0 73 -40 157 -88z
m-662 -7239 c1 -5 2 -155 3 -335 l1 -328 -1227 0 -1228 0 0 335 0 335 1225 0
c674 0 1226 -3 1226 -7z m1954 -326 l0 -332 -742 -3 -743 -2 0 335 0 335 743
0 742 0 0 -333z"/>
<path d="M4587 7404 c-1 -1 -69 -5 -152 -8 -82 -4 -168 -9 -190 -11 -136 -14
-192 -20 -255 -30 -19 -3 -52 -8 -74 -11 -21 -3 -48 -8 -60 -10 -11 -2 -37 -7
-56 -10 -19 -3 -43 -7 -52 -10 -10 -3 -28 -7 -40 -10 -79 -14 -226 -51 -323
-79 -126 -37 -219 -67 -230 -73 -5 -4 -14 -7 -20 -8 -17 -3 -191 -71 -252 -99
-32 -14 -71 -32 -88 -39 -61 -28 -201 -100 -310 -161 -48 -26 -305 -194 -315
-205 -3 -3 -30 -24 -61 -47 -282 -209 -580 -529 -781 -838 -124 -190 -272
-478 -339 -657 -39 -104 -108 -309 -112 -334 -2 -10 -9 -37 -15 -59 -6 -22
-13 -51 -16 -65 -8 -41 -15 -71 -20 -88 -3 -9 -8 -35 -11 -57 -3 -23 -8 -52
-11 -65 -2 -14 -7 -38 -9 -55 -3 -16 -7 -40 -9 -52 -8 -41 -22 -170 -32 -318
-14 -183 -8 -580 10 -740 2 -16 7 -60 10 -97 4 -37 9 -77 12 -90 2 -13 6 -39
9 -58 3 -19 7 -46 10 -60 6 -28 24 -123 31 -160 3 -14 7 -33 10 -42 3 -9 7
-26 9 -37 15 -76 110 -379 144 -456 125 -284 145 -326 244 -495 288 -494 701
-905 1212 -1205 101 -60 434 -225 452 -225 6 0 32 -10 59 -22 27 -12 54 -23
59 -25 6 -2 75 -25 155 -52 148 -50 237 -77 278 -86 12 -3 31 -7 42 -10 11 -3
29 -7 40 -10 22 -5 24 -6 120 -28 58 -14 105 -23 165 -32 11 -2 34 -6 50 -9
79 -14 191 -29 320 -41 310 -31 849 -26 1140 10 22 2 60 7 85 10 25 3 56 8 70
10 14 2 43 6 65 10 23 3 52 8 65 10 31 6 70 13 113 20 82 14 373 91 506 134
341 112 698 293 976 494 69 50 244 188 276 217 86 79 252 247 311 313 40 45
75 84 78 87 64 61 390 530 390 561 0 4 -80 54 -177 110 -98 56 -211 122 -250
146 -40 24 -75 43 -77 43 -2 0 -48 26 -103 58 -175 105 -572 332 -578 332 -4
0 -13 7 -21 15 -9 8 -19 15 -24 15 -5 0 -34 -34 -65 -76 -166 -224 -418 -475
-625 -622 -36 -26 -66 -50 -68 -54 -2 -5 -9 -8 -15 -8 -6 0 -18 -6 -26 -14
-39 -35 -270 -157 -377 -200 -66 -27 -128 -52 -139 -58 -12 -5 -27 -10 -35
-12 -8 -1 -40 -10 -71 -20 -31 -9 -66 -19 -78 -21 -11 -3 -30 -7 -41 -10 -30
-8 -62 -15 -90 -20 -14 -3 -35 -7 -46 -9 -30 -6 -94 -17 -129 -21 -152 -21
-175 -23 -300 -31 -231 -15 -549 -5 -685 21 -13 3 -42 7 -65 10 -22 3 -47 8
-55 10 -8 2 -28 7 -45 10 -26 4 -116 26 -165 39 -416 114 -829 383 -1091 711
-172 215 -346 555 -395 770 -1 6 -9 38 -18 72 -22 82 -38 168 -51 263 -25 186
-25 522 -1 710 10 77 23 157 30 185 2 11 12 54 21 95 10 41 32 120 50 175 245
741 816 1235 1620 1401 11 2 34 6 50 9 35 5 99 14 134 20 161 27 644 27 856 1
73 -10 124 -17 177 -26 32 -6 68 -12 80 -14 38 -6 161 -36 195 -47 18 -5 40
-12 50 -14 10 -2 41 -11 68 -20 475 -158 913 -486 1264 -944 40 -53 77 -95 81
-94 4 1 32 17 61 34 30 18 69 40 87 51 18 10 93 53 165 95 226 131 250 145
307 176 30 17 82 47 115 67 33 20 85 50 115 67 30 17 109 63 175 102 66 38
139 80 163 92 23 13 42 27 42 33 0 13 -87 151 -177 281 -148 216 -403 504
-593 670 -161 142 -383 302 -574 414 -85 50 -364 190 -389 196 -7 1 -30 10
-52 20 -79 35 -258 98 -355 126 -25 7 -49 14 -55 15 -59 17 -133 37 -145 39
-8 2 -33 8 -55 14 -22 5 -53 13 -70 15 -16 3 -41 8 -55 11 -14 3 -38 8 -55 10
-16 3 -37 8 -45 10 -13 3 -37 7 -125 20 -11 1 -42 6 -70 10 -27 3 -61 8 -75
10 -14 2 -56 7 -95 10 -38 3 -83 8 -100 10 -70 10 -589 27 -598 19z"/>
<path d="M9380 3710 l0 -3530 798 2 797 3 1 1485 c1 817 2 1490 3 1495 1 7
356 10 1043 10 l1042 0 108 -175 c59 -96 121 -195 137 -220 36 -57 263 -424
276 -448 6 -9 37 -60 69 -112 58 -93 144 -232 376 -610 62 -102 128 -207 145
-235 28 -43 203 -327 344 -558 53 -86 209 -338 261 -422 20 -33 59 -95 85
-138 l47 -77 949 0 948 0 -65 103 c-36 56 -117 183 -181 282 -63 99 -174 272
-246 385 -72 113 -159 249 -194 302 -35 54 -63 102 -63 107 0 5 -4 11 -9 13
-4 2 -46 63 -92 136 -46 73 -101 158 -121 190 -20 31 -55 86 -78 122 -23 36
-58 91 -78 122 -35 55 -100 157 -270 424 -42 66 -104 163 -138 215 -34 52
-106 164 -160 249 -54 85 -117 183 -139 217 -22 34 -67 104 -99 155 -62 97
-100 157 -340 531 -80 125 -146 232 -146 236 0 4 45 73 99 152 257 373 303
438 396 572 55 79 135 195 178 258 97 142 214 311 282 409 100 144 364 526
417 603 29 43 73 107 98 142 45 65 381 549 639 924 78 112 141 205 141 207 0
2 -415 4 -922 4 l-923 -1 -47 -72 c-25 -40 -87 -132 -137 -205 -50 -74 -135
-198 -188 -275 -53 -78 -135 -198 -182 -267 -97 -141 -226 -331 -339 -498
-107 -156 -401 -587 -497 -728 -44 -64 -86 -126 -93 -138 -7 -11 -75 -111
-150 -221 l-138 -200 -1025 0 -1024 0 0 1300 0 1300 -798 3 -797 2 0 -3530z"/>
<path d="M17720 3710 l0 -3530 773 2 772 3 1 2450 c1 1348 2 2457 3 2466 1 11
11 15 34 15 30 -1 34 -6 72 -82 22 -44 55 -114 74 -155 19 -41 58 -125 87
-187 30 -63 54 -115 54 -117 0 -1 26 -58 59 -126 32 -68 68 -146 81 -174 12
-27 41 -88 62 -135 22 -47 54 -114 70 -150 56 -122 164 -353 216 -460 19 -41
37 -79 38 -85 1 -5 29 -66 62 -135 32 -69 69 -147 82 -175 24 -52 66 -144 144
-308 25 -54 46 -100 46 -101 0 -2 24 -55 54 -117 29 -63 78 -168 109 -234 30
-66 75 -164 101 -217 100 -212 136 -289 136 -293 0 -2 32 -69 70 -150 39 -81
70 -148 70 -150 0 -1 24 -54 54 -116 29 -63 65 -139 78 -169 14 -30 46 -98 71
-150 24 -52 55 -117 67 -145 21 -46 44 -95 130 -280 18 -38 66 -142 107 -230
41 -88 88 -190 106 -227 l31 -68 673 0 673 0 46 98 c25 53 53 111 62 127 8 17
19 37 23 45 5 8 35 71 68 140 32 69 96 202 141 295 45 94 110 229 145 300 35
72 100 207 145 300 45 94 111 231 147 305 36 74 103 212 149 306 46 95 108
223 137 285 108 227 198 414 206 429 4 8 13 24 19 35 6 11 41 83 78 160 62
130 95 198 271 565 138 286 204 422 298 615 53 110 117 242 142 294 100 209
236 490 272 561 35 67 42 75 69 76 17 1 32 -3 34 -10 2 -6 4 -1117 3 -2468 l0
-2458 787 0 788 0 0 3530 0 3530 -1023 0 -1022 0 -22 -42 c-11 -24 -28 -56
-36 -73 -8 -16 -115 -228 -237 -470 -122 -242 -373 -738 -556 -1103 -184 -365
-339 -671 -344 -680 -5 -9 -38 -75 -73 -147 -36 -71 -181 -362 -324 -645 -143
-283 -423 -839 -623 -1235 -357 -711 -362 -720 -392 -720 -33 -1 -13 -38 -241
435 -127 264 -204 423 -292 605 -48 99 -121 250 -162 335 -41 85 -106 218
-143 295 -37 77 -99 205 -138 285 -127 264 -228 473 -300 620 -38 80 -106 219
-150 310 -44 91 -112 233 -152 315 -40 83 -108 222 -150 310 -43 88 -111 230
-152 315 -42 85 -108 223 -148 305 -40 83 -96 200 -125 260 -29 61 -107 223
-174 360 -67 138 -134 276 -149 307 l-27 57 -1067 1 -1068 0 0 -3530z"/>
</g>
</svg>
