<svg width="350" height="350" viewBox="0 0 350 350" fill="none" xmlns="http://www.w3.org/2000/svg">
<rect x="3.5" y="3.5" width="343" height="343" rx="8.5" stroke="white" stroke-width="7"/>
<path d="M68.8336 159.6H61.5336V175H56.6336V140H61.5336V155.2H68.9336L79.9336 140H85.2836L72.7836 156.95L85.8836 175H80.1836L68.8336 159.6ZM101.217 175.3C98.5835 175.3 96.2168 174.717 94.1168 173.55C92.0168 172.383 90.3668 170.783 89.1668 168.75C88.0001 166.683 87.4168 164.35 87.4168 161.75C87.4168 159.15 88.0001 156.833 89.1668 154.8C90.3668 152.733 92.0168 151.133 94.1168 150C96.2168 148.833 98.5835 148.25 101.217 148.25C103.85 148.25 106.2 148.833 108.267 150C110.367 151.133 112 152.733 113.167 154.8C114.367 156.833 114.967 159.15 114.967 161.75C114.967 164.35 114.367 166.683 113.167 168.75C112 170.783 110.367 172.383 108.267 173.55C106.2 174.717 103.85 175.3 101.217 175.3ZM101.217 171.1C102.917 171.1 104.433 170.717 105.767 169.95C107.133 169.15 108.2 168.05 108.967 166.65C109.733 165.217 110.117 163.583 110.117 161.75C110.117 159.917 109.733 158.3 108.967 156.9C108.2 155.467 107.133 154.367 105.767 153.6C104.433 152.833 102.917 152.45 101.217 152.45C99.5168 152.45 97.9835 152.833 96.6168 153.6C95.2835 154.367 94.2168 155.467 93.4168 156.9C92.6501 158.3 92.2668 159.917 92.2668 161.75C92.2668 163.583 92.6501 165.217 93.4168 166.65C94.2168 168.05 95.2835 169.15 96.6168 169.95C97.9835 170.717 99.5168 171.1 101.217 171.1ZM121.898 148.5H126.698V159.75H141.798V148.5H146.598V175H141.798V163.9H126.698V175H121.898V148.5ZM175.681 152.7H165.981V175H161.181V152.7H151.481V148.5H175.681V152.7ZM190.039 148.25C193.706 148.25 196.506 149.15 198.439 150.95C200.406 152.75 201.389 155.433 201.389 159V175H196.839V171.5C196.039 172.733 194.889 173.683 193.389 174.35C191.923 174.983 190.173 175.3 188.139 175.3C185.173 175.3 182.789 174.583 180.989 173.15C179.223 171.717 178.339 169.833 178.339 167.5C178.339 165.167 179.189 163.3 180.889 161.9C182.589 160.467 185.289 159.75 188.989 159.75H196.589V158.8C196.589 156.733 195.989 155.15 194.789 154.05C193.589 152.95 191.823 152.4 189.489 152.4C187.923 152.4 186.389 152.667 184.889 153.2C183.389 153.7 182.123 154.383 181.089 155.25L179.089 151.65C180.456 150.55 182.089 149.717 183.989 149.15C185.889 148.55 187.906 148.25 190.039 148.25ZM188.939 171.6C190.773 171.6 192.356 171.2 193.689 170.4C195.023 169.567 195.989 168.4 196.589 166.9V163.2H189.189C185.123 163.2 183.089 164.567 183.089 167.3C183.089 168.633 183.606 169.683 184.639 170.45C185.673 171.217 187.106 171.6 188.939 171.6ZM220.333 163.8H214.833V175H210.033V148.5H214.833V159.7H220.433L229.033 148.5H234.183L224.133 161.25L234.883 175H229.233L220.333 163.8ZM259.226 152.7H249.526V175H244.726V152.7H235.026V148.5H259.226V152.7ZM276.084 157.5C279.418 157.533 281.968 158.3 283.734 159.8C285.501 161.3 286.384 163.417 286.384 166.15C286.384 169.017 285.418 171.233 283.484 172.8C281.584 174.333 278.851 175.083 275.284 175.05L264.134 175V148.5H268.934V157.45L276.084 157.5ZM290.334 148.5H295.134V175H290.334V148.5ZM274.934 171.4C277.101 171.433 278.734 171 279.834 170.1C280.968 169.2 281.534 167.867 281.534 166.1C281.534 164.367 280.984 163.1 279.884 162.3C278.784 161.5 277.134 161.083 274.934 161.05L268.934 160.95V171.35L274.934 171.4Z" fill="white"/>
<line x1="72.9949" y1="206.525" x2="279.005" y2="206.525" stroke="#FF262E" stroke-width="5"/>
</svg>
