<svg width="350" height="350" viewBox="0 0 350 350" fill="none" xmlns="http://www.w3.org/2000/svg">
<rect x="3.5" y="3.5" width="343" height="343" rx="8.5" stroke="white" stroke-width="7"/>
<path d="M99.6635 144.35H81.6635L81.7135 175H76.7635V140H99.7135L99.6635 144.35ZM119.807 148.5V175H115.007V152.7H103.607L103.307 158.6C103.141 162.167 102.824 165.15 102.357 167.55C101.891 169.917 101.124 171.817 100.057 173.25C98.9906 174.683 97.5072 175.4 95.6072 175.4C94.7406 175.4 93.7572 175.25 92.6572 174.95L92.9572 170.9C93.3906 171 93.7906 171.05 94.1572 171.05C95.4906 171.05 96.4906 170.467 97.1572 169.3C97.8239 168.133 98.2572 166.75 98.4572 165.15C98.6572 163.55 98.8406 161.267 99.0072 158.3L99.4572 148.5H119.807ZM138.538 148.25C142.205 148.25 145.005 149.15 146.938 150.95C148.905 152.75 149.888 155.433 149.888 159V175H145.338V171.5C144.538 172.733 143.388 173.683 141.888 174.35C140.422 174.983 138.672 175.3 136.638 175.3C133.672 175.3 131.288 174.583 129.488 173.15C127.722 171.717 126.838 169.833 126.838 167.5C126.838 165.167 127.688 163.3 129.388 161.9C131.088 160.467 133.788 159.75 137.488 159.75H145.088V158.8C145.088 156.733 144.488 155.15 143.288 154.05C142.088 152.95 140.322 152.4 137.988 152.4C136.422 152.4 134.888 152.667 133.388 153.2C131.888 153.7 130.622 154.383 129.588 155.25L127.588 151.65C128.955 150.55 130.588 149.717 132.488 149.15C134.388 148.55 136.405 148.25 138.538 148.25ZM137.438 171.6C139.272 171.6 140.855 171.2 142.188 170.4C143.522 169.567 144.488 168.4 145.088 166.9V163.2H137.688C133.622 163.2 131.588 164.567 131.588 167.3C131.588 168.633 132.105 169.683 133.138 170.45C134.172 171.217 135.605 171.6 137.438 171.6ZM176.582 161.25C180.015 162.117 181.732 164.267 181.732 167.7C181.732 170.033 180.849 171.833 179.082 173.1C177.349 174.367 174.749 175 171.282 175H158.532V148.5H170.832C173.965 148.5 176.415 149.1 178.182 150.3C179.949 151.467 180.832 153.133 180.832 155.3C180.832 156.7 180.449 157.917 179.682 158.95C178.949 159.95 177.915 160.717 176.582 161.25ZM163.232 159.9H170.432C172.265 159.9 173.649 159.567 174.582 158.9C175.549 158.233 176.032 157.267 176.032 156C176.032 153.467 174.165 152.2 170.432 152.2H163.232V159.9ZM170.932 171.3C172.932 171.3 174.432 170.983 175.432 170.35C176.432 169.717 176.932 168.733 176.932 167.4C176.932 166.033 176.465 165.017 175.532 164.35C174.632 163.683 173.199 163.35 171.232 163.35H163.232V171.3H170.932ZM189.245 148.5H194.045V159.75H209.145V148.5H213.945V175H209.145V163.9H194.045V175H189.245V148.5ZM232.728 148.25C236.395 148.25 239.195 149.15 241.128 150.95C243.095 152.75 244.078 155.433 244.078 159V175H239.528V171.5C238.728 172.733 237.578 173.683 236.078 174.35C234.611 174.983 232.861 175.3 230.828 175.3C227.861 175.3 225.478 174.583 223.678 173.15C221.911 171.717 221.028 169.833 221.028 167.5C221.028 165.167 221.878 163.3 223.578 161.9C225.278 160.467 227.978 159.75 231.678 159.75H239.278V158.8C239.278 156.733 238.678 155.15 237.478 154.05C236.278 152.95 234.511 152.4 232.178 152.4C230.611 152.4 229.078 152.667 227.578 153.2C226.078 153.7 224.811 154.383 223.778 155.25L221.778 151.65C223.145 150.55 224.778 149.717 226.678 149.15C228.578 148.55 230.595 148.25 232.728 148.25ZM231.628 171.6C233.461 171.6 235.045 171.2 236.378 170.4C237.711 169.567 238.678 168.4 239.278 166.9V163.2H231.878C227.811 163.2 225.778 164.567 225.778 167.3C225.778 168.633 226.295 169.683 227.328 170.45C228.361 171.217 229.795 171.6 231.628 171.6ZM273.971 148.5V175H269.671V166.6H261.971H261.421L255.621 175H250.471L256.921 165.95C254.921 165.35 253.388 164.367 252.321 163C251.255 161.6 250.721 159.867 250.721 157.8C250.721 154.767 251.755 152.467 253.821 150.9C255.888 149.3 258.738 148.5 262.371 148.5H273.971ZM255.621 157.95C255.621 159.717 256.171 161.033 257.271 161.9C258.405 162.733 260.088 163.15 262.321 163.15H269.671V152.7H262.521C257.921 152.7 255.621 154.45 255.621 157.95Z" fill="white"/>
<line x1="72.9949" y1="206.525" x2="279.005" y2="206.525" stroke="#FF262E" stroke-width="5"/>
</svg>
