<svg width="350" height="350" viewBox="0 0 350 350" fill="none" xmlns="http://www.w3.org/2000/svg">
<rect x="3.5" y="3.5" width="343" height="343" rx="8.5" stroke="white" stroke-width="7"/>
<path d="M47.776 130.6H40.476V146H35.576V111H40.476V126.2H47.876L58.876 111H64.226L51.726 127.95L64.826 146H59.126L47.776 130.6ZM78.9428 119.25C82.6094 119.25 85.4094 120.15 87.3428 121.95C89.3094 123.75 90.2928 126.433 90.2928 130V146H85.7428V142.5C84.9428 143.733 83.7928 144.683 82.2928 145.35C80.8261 145.983 79.0761 146.3 77.0428 146.3C74.0761 146.3 71.6928 145.583 69.8928 144.15C68.1261 142.717 67.2428 140.833 67.2428 138.5C67.2428 136.167 68.0928 134.3 69.7928 132.9C71.4928 131.467 74.1928 130.75 77.8928 130.75H85.4928V129.8C85.4928 127.733 84.8928 126.15 83.6928 125.05C82.4928 123.95 80.7261 123.4 78.3928 123.4C76.8261 123.4 75.2928 123.667 73.7928 124.2C72.2928 124.7 71.0261 125.383 69.9928 126.25L67.9928 122.65C69.3594 121.55 70.9928 120.717 72.8928 120.15C74.7928 119.55 76.8094 119.25 78.9428 119.25ZM77.8428 142.6C79.6761 142.6 81.2594 142.2 82.5928 141.4C83.9261 140.567 84.8928 139.4 85.4928 137.9V134.2H78.0928C74.0261 134.2 71.9928 135.567 71.9928 138.3C71.9928 139.633 72.5094 140.683 73.5428 141.45C74.5761 142.217 76.0094 142.6 77.8428 142.6ZM112.986 119.25C115.553 119.25 117.853 119.817 119.886 120.95C121.919 122.083 123.503 123.667 124.636 125.7C125.803 127.733 126.386 130.083 126.386 132.75C126.386 135.417 125.803 137.783 124.636 139.85C123.503 141.883 121.919 143.467 119.886 144.6C117.853 145.733 115.553 146.3 112.986 146.3C111.086 146.3 109.336 145.933 107.736 145.2C106.169 144.467 104.836 143.4 103.736 142V155.7H98.9361V119.5H103.536V123.7C104.603 122.233 105.953 121.133 107.586 120.4C109.219 119.633 111.019 119.25 112.986 119.25ZM112.586 142.1C114.286 142.1 115.803 141.717 117.136 140.95C118.503 140.15 119.569 139.05 120.336 137.65C121.136 136.217 121.536 134.583 121.536 132.75C121.536 130.917 121.136 129.3 120.336 127.9C119.569 126.467 118.503 125.367 117.136 124.6C115.803 123.833 114.286 123.45 112.586 123.45C110.919 123.45 109.403 123.85 108.036 124.65C106.703 125.417 105.636 126.5 104.836 127.9C104.069 129.3 103.686 130.917 103.686 132.75C103.686 134.583 104.069 136.217 104.836 137.65C105.603 139.05 106.669 140.15 108.036 140.95C109.403 141.717 110.919 142.1 112.586 142.1ZM143.66 134.8H138.16V146H133.36V119.5H138.16V130.7H143.76L152.36 119.5H157.51L147.46 132.25L158.21 146H152.56L143.66 134.8ZM172.204 119.25C175.871 119.25 178.671 120.15 180.604 121.95C182.571 123.75 183.554 126.433 183.554 130V146H179.004V142.5C178.204 143.733 177.054 144.683 175.554 145.35C174.088 145.983 172.338 146.3 170.304 146.3C167.338 146.3 164.954 145.583 163.154 144.15C161.388 142.717 160.504 140.833 160.504 138.5C160.504 136.167 161.354 134.3 163.054 132.9C164.754 131.467 167.454 130.75 171.154 130.75H178.754V129.8C178.754 127.733 178.154 126.15 176.954 125.05C175.754 123.95 173.988 123.4 171.654 123.4C170.088 123.4 168.554 123.667 167.054 124.2C165.554 124.7 164.288 125.383 163.254 126.25L161.254 122.65C162.621 121.55 164.254 120.717 166.154 120.15C168.054 119.55 170.071 119.25 172.204 119.25ZM171.104 142.6C172.938 142.6 174.521 142.2 175.854 141.4C177.188 140.567 178.154 139.4 178.754 137.9V134.2H171.354C167.288 134.2 165.254 135.567 165.254 138.3C165.254 139.633 165.771 140.683 166.804 141.45C167.838 142.217 169.271 142.6 171.104 142.6ZM203.748 146.3C201.048 146.3 198.631 145.717 196.498 144.55C194.398 143.383 192.748 141.783 191.548 139.75C190.348 137.683 189.748 135.35 189.748 132.75C189.748 130.15 190.348 127.833 191.548 125.8C192.748 123.733 194.398 122.133 196.498 121C198.631 119.833 201.048 119.25 203.748 119.25C206.148 119.25 208.281 119.733 210.148 120.7C212.048 121.667 213.515 123.067 214.548 124.9L210.898 127.25C210.065 125.983 209.031 125.033 207.798 124.4C206.565 123.767 205.198 123.45 203.698 123.45C201.965 123.45 200.398 123.833 198.998 124.6C197.631 125.367 196.548 126.467 195.748 127.9C194.981 129.3 194.598 130.917 194.598 132.75C194.598 134.617 194.981 136.267 195.748 137.7C196.548 139.1 197.631 140.183 198.998 140.95C200.398 141.717 201.965 142.1 203.698 142.1C205.198 142.1 206.565 141.783 207.798 141.15C209.031 140.517 210.065 139.567 210.898 138.3L214.548 140.6C213.515 142.433 212.048 143.85 210.148 144.85C208.281 145.817 206.148 146.3 203.748 146.3ZM220.762 119.5H225.562V130.75H240.662V119.5H245.462V146H240.662V134.9H225.562V146H220.762V119.5ZM266.746 128.5C270.079 128.533 272.629 129.3 274.396 130.8C276.162 132.3 277.046 134.417 277.046 137.15C277.046 140.017 276.079 142.233 274.146 143.8C272.246 145.333 269.512 146.083 265.946 146.05L254.796 146V119.5H259.596V128.45L266.746 128.5ZM280.996 119.5H285.796V146H280.996V119.5ZM265.596 142.4C267.762 142.433 269.396 142 270.496 141.1C271.629 140.2 272.196 138.867 272.196 137.1C272.196 135.367 271.646 134.1 270.546 133.3C269.446 132.5 267.796 132.083 265.596 132.05L259.596 131.95V142.35L265.596 142.4ZM319.078 132.9C319.078 133.267 319.044 133.75 318.978 134.35H297.478C297.778 136.683 298.794 138.567 300.528 140C302.294 141.4 304.478 142.1 307.078 142.1C310.244 142.1 312.794 141.033 314.728 138.9L317.378 142C316.178 143.4 314.678 144.467 312.878 145.2C311.111 145.933 309.128 146.3 306.928 146.3C304.128 146.3 301.644 145.733 299.478 144.6C297.311 143.433 295.628 141.817 294.428 139.75C293.261 137.683 292.678 135.35 292.678 132.75C292.678 130.183 293.244 127.867 294.378 125.8C295.544 123.733 297.128 122.133 299.128 121C301.161 119.833 303.444 119.25 305.978 119.25C308.511 119.25 310.761 119.833 312.728 121C314.728 122.133 316.278 123.733 317.378 125.8C318.511 127.867 319.078 130.233 319.078 132.9ZM305.978 123.3C303.678 123.3 301.744 124 300.178 125.4C298.644 126.8 297.744 128.633 297.478 130.9H314.478C314.211 128.667 313.294 126.85 311.728 125.45C310.194 124.017 308.278 123.3 305.978 123.3ZM140.315 202.8V213.15H135.815V207H113.665V213.15H109.115V202.8H110.515C112.215 202.7 113.382 201.5 114.015 199.2C114.648 196.9 115.082 193.65 115.315 189.45L115.715 180.5H136.265V202.8H140.315ZM119.715 189.8C119.582 193.133 119.298 195.9 118.865 198.1C118.465 200.267 117.715 201.833 116.615 202.8H131.465V184.7H119.965L119.715 189.8ZM157.918 207.3C155.285 207.3 152.918 206.717 150.818 205.55C148.718 204.383 147.068 202.783 145.868 200.75C144.701 198.683 144.118 196.35 144.118 193.75C144.118 191.15 144.701 188.833 145.868 186.8C147.068 184.733 148.718 183.133 150.818 182C152.918 180.833 155.285 180.25 157.918 180.25C160.551 180.25 162.901 180.833 164.968 182C167.068 183.133 168.701 184.733 169.868 186.8C171.068 188.833 171.668 191.15 171.668 193.75C171.668 196.35 171.068 198.683 169.868 200.75C168.701 202.783 167.068 204.383 164.968 205.55C162.901 206.717 160.551 207.3 157.918 207.3ZM157.918 203.1C159.618 203.1 161.135 202.717 162.468 201.95C163.835 201.15 164.901 200.05 165.668 198.65C166.435 197.217 166.818 195.583 166.818 193.75C166.818 191.917 166.435 190.3 165.668 188.9C164.901 187.467 163.835 186.367 162.468 185.6C161.135 184.833 159.618 184.45 157.918 184.45C156.218 184.45 154.685 184.833 153.318 185.6C151.985 186.367 150.918 187.467 150.118 188.9C149.351 190.3 148.968 191.917 148.968 193.75C148.968 195.583 149.351 197.217 150.118 198.65C150.918 200.05 151.985 201.15 153.318 201.95C154.685 202.717 156.218 203.1 157.918 203.1ZM209.149 180.5V207H204.799V187.65L194.899 204H192.799L182.999 187.6V207H178.599V180.5H183.549L193.949 198.4L204.649 180.5H209.149ZM227.942 180.25C231.608 180.25 234.408 181.15 236.342 182.95C238.308 184.75 239.292 187.433 239.292 191V207H234.742V203.5C233.942 204.733 232.792 205.683 231.292 206.35C229.825 206.983 228.075 207.3 226.042 207.3C223.075 207.3 220.692 206.583 218.892 205.15C217.125 203.717 216.242 201.833 216.242 199.5C216.242 197.167 217.092 195.3 218.792 193.9C220.492 192.467 223.192 191.75 226.892 191.75H234.492V190.8C234.492 188.733 233.892 187.15 232.692 186.05C231.492 184.95 229.725 184.4 227.392 184.4C225.825 184.4 224.292 184.667 222.792 185.2C221.292 185.7 220.025 186.383 218.992 187.25L216.992 183.65C218.358 182.55 219.992 181.717 221.892 181.15C223.792 180.55 225.808 180.25 227.942 180.25ZM226.842 203.6C228.675 203.6 230.258 203.2 231.592 202.4C232.925 201.567 233.892 200.4 234.492 198.9V195.2H227.092C223.025 195.2 220.992 196.567 220.992 199.3C220.992 200.633 221.508 201.683 222.542 202.45C223.575 203.217 225.008 203.6 226.842 203.6Z" fill="white"/>
<line x1="72" y1="248.5" x2="278.01" y2="248.5" stroke="#FF262E" stroke-width="5"/>
</svg>
