<svg width="54" height="53" viewBox="0 0 54 53" fill="none" xmlns="http://www.w3.org/2000/svg">
<g clip-path="url(#clip0)">
<path d="M53.5187 38.3523C53.3736 38.1138 52.4758 36.199 48.1555 32.2635C43.6326 28.1424 44.2402 28.8116 49.6878 21.6859C53.0057 17.3462 54.3322 14.696 53.917 13.563C53.5221 12.4831 51.0818 12.768 51.0818 12.768L42.9677 12.8143C42.9677 12.8143 42.3669 12.7348 41.918 12.9965C41.4826 13.2549 41.2024 13.8512 41.2024 13.8512C41.2024 13.8512 39.9165 17.2104 38.2018 20.0659C34.587 26.0918 33.139 26.4098 32.5483 26.0355C31.1746 25.1643 31.5188 22.5306 31.5188 20.6622C31.5188 14.8219 32.42 12.387 29.7603 11.7576C28.876 11.5489 28.228 11.4097 25.9699 11.3865C23.074 11.3567 20.6202 11.3965 19.2329 12.0623C18.3081 12.5063 17.5959 13.4968 18.0313 13.5531C18.568 13.6226 19.7831 13.8744 20.4278 14.7357C21.2615 15.8455 21.2311 18.3433 21.2311 18.3433C21.2311 18.3433 21.7104 25.2173 20.1139 26.0719C19.0169 26.6583 17.5149 25.4624 14.2916 19.9931C12.6411 17.1938 11.3922 14.0964 11.3922 14.0964C11.3922 14.0964 11.1526 13.52 10.7239 13.2119C10.2041 12.8375 9.47508 12.7183 9.47508 12.7183L1.75926 12.7646C1.75926 12.7646 0.601548 12.7978 0.176267 13.2914C-0.201762 13.732 0.145889 14.6397 0.145889 14.6397C0.145889 14.6397 6.18759 28.5101 13.0258 35.5033C19.3004 41.9135 26.4222 41.4928 26.4222 41.4928H29.649C29.649 41.4928 30.6244 41.3868 31.1206 40.86C31.5796 40.3764 31.5627 39.4687 31.5627 39.4687C31.5627 39.4687 31.4986 35.2184 33.5102 34.5923C35.4915 33.9762 38.0365 38.7001 40.7333 40.5188C42.7719 41.8936 44.3212 41.5922 44.3212 41.5922L51.5341 41.4928C51.5341 41.4928 55.3076 41.2642 53.5187 38.3523Z" fill="black"/>
</g>
<defs>
<clipPath id="clip0">
<rect width="54" height="53" fill="white"/>
</clipPath>
</defs>
</svg>
