<svg width="54" height="53" viewBox="0 0 54 53" fill="none" xmlns="http://www.w3.org/2000/svg">
<path d="M51.705 11.7925C50.2402 9.23525 48.6506 8.76488 45.414 8.586C42.1808 8.37069 34.0504 8.28125 27.0068 8.28125C19.9496 8.28125 11.8159 8.37069 8.586 8.58269C5.35612 8.76488 3.76312 9.23194 2.28487 11.7925C0.77625 14.3464 0 18.7454 0 26.4901C0 26.4967 0 26.5 0 26.5C0 26.5066 0 26.5099 0 26.5099V26.5166C0 34.2281 0.77625 38.6602 2.28487 41.1876C3.76312 43.7449 5.35275 44.2086 8.58263 44.4239C11.8159 44.6094 19.9496 44.7188 27.0068 44.7188C34.0504 44.7188 42.1807 44.6094 45.4174 44.4272C48.654 44.2119 50.2436 43.7482 51.7084 41.1909C53.2305 38.6635 54 34.2314 54 26.5199C54 26.5199 54 26.5099 54 26.5033C54 26.5033 54 26.4967 54 26.4934C54 18.7454 53.2305 14.3464 51.705 11.7925ZM20.25 36.4375V16.5625L37.125 26.5L20.25 36.4375Z" fill="black"/>
</svg>
